<?xml version="1.0" encoding="utf-8"?>
<!-- Generator: Adobe Illustrator 27.3.1, SVG Export Plug-In . SVG Version: 6.00 Build 0)  -->
<svg version="1.1" id="Layer_1" xmlns="http://www.w3.org/2000/svg" xmlns:xlink="http://www.w3.org/1999/xlink" x="0px" y="0px"
	 viewBox="0 0 1000 1000" style="enable-background:new 0 0 1000 1000;" xml:space="preserve">
<style type="text/css">
	.st0{fill:#FFF32F;}
	.st1{fill:#0C0101;}
	.st2{fill:#F53831;}
	.st3{fill:#FED8BC;}
	.st4{fill:#FEFEFE;}
	.st5{fill:#FDBE7F;}
	.st6{fill:#0079BD;}
	.st7{fill:#9B5F3F;}
	.st8{fill:#0078BD;}
	.st9{fill:#FEF12F;}
	.st10{fill:#FDF02F;}
	.st11{fill:#FEFDFD;}
	.st12{fill:#FBFBFB;}
	.st13{fill:#0078BC;}
	.st14{fill:#F7F7F7;}
	.st15{fill:#985D3E;}
	.st16{fill:#08C2E1;}
	.st17{fill:#EECAB1;}
	.st18{fill:#E6E5E5;}
	.st19{fill:#221E21;}
	.st20{fill:#B69885;}
	.st21{fill:#CDAD97;}
	.st22{fill:#1D1C20;}
	.st23{fill:#235D91;}
	.st24{fill:#FAD5B9;}
	.st25{fill:#955276;}
	.st26{fill:#5C4C75;}
	.st27{fill:#0C0102;}
	.st28{fill:#0E0303;}
	.st29{fill:#100606;}
	.st30{fill:#100505;}
	.st31{fill:#120708;}
	.st32{fill:#190E03;}
	.st33{fill:#1E1303;}
	.st34{fill:#14181B;}
	.st35{fill:#FDFDFD;}
	.st36{fill:#08CAE9;}
	.st37{fill:#15171B;}
	.st38{fill:#EDECEC;}
	.st39{fill:#282A2E;}
	.st40{fill:#19191C;}
	.st41{fill:#2E3D41;}
	.st42{fill:#06070C;}
	.st43{fill:#05070A;}
	.st44{fill:#060606;}
	.st45{fill:#060607;}
	.st46{fill:#05070B;}
	.st47{fill:#050807;}
	.st48{fill:#060708;}
	.st49{fill:#04080B;}
	.st50{fill:#070606;}
	.st51{fill:#070707;}
	.st52{fill:#0A0606;}
	.st53{fill:#FED9BF;}
	.st54{fill:#9F6443;}
	.st55{fill:#FEDAC0;}
	.st56{fill:#070605;}
	.st57{fill:#2675AF;}
	.st58{fill:#2A71A6;}
	.st59{fill:#2077B5;}
	.st60{fill:#206B9E;}
	.st61{fill:#2A71A7;}
	.st62{fill:#050D1A;}
	.st63{fill:#081020;}
	.st64{fill:#030C1B;}
	.st65{fill:#031425;}
	.st66{fill:#00B45F;}
	.st67{fill:#9F6344;}
	.st68{fill:#01B45F;}
	.st69{fill:#03080D;}
	.st70{fill:#339C62;}
	.st71{fill:#906049;}
	.st72{fill:#31A064;}
	.st73{fill:#2F9E67;}
	.st74{fill:#359E64;}
	.st75{fill:#329F69;}
	.st76{fill:#2FA165;}
	.st77{fill:#EDFBEF;}
	.st78{fill:#2FA564;}
	.st79{fill:#359F65;}
	.st80{fill:#34A26A;}
	.st81{fill:#36A36B;}
	.st82{fill:#01220B;}
	.st83{fill:#389F67;}
	.st84{fill:#339D64;}
	.st85{fill:#30A367;}
	.st86{fill:#35A66D;}
	.st87{fill:#34A368;}
	.st88{fill:#349D64;}
	.st89{fill:#369C66;}
	.st90{fill:#359866;}
	.st91{fill:#1C9154;}
	.st92{fill:#31A161;}
	.st93{fill:#29A567;}
	.st94{fill:#AAD0B4;}
	.st95{fill:#339E68;}
	.st96{fill:#37A266;}
	.st97{fill:#389864;}
	.st98{fill:#38AA71;}
	.st99{fill:#3BA16C;}
	.st100{fill:#3BA66C;}
	.st101{fill:#05060A;}
	.st102{fill:#06070A;}
	.st103{fill:#0E0E0E;}
	.st104{fill:#2F9F65;}
	.st105{fill:#30A068;}
	.st106{fill:#33A067;}
	.st107{fill:#30A16B;}
	.st108{fill:#31A066;}
	.st109{fill:#349C6B;}
	.st110{fill:#06090E;}
	.st111{fill:#90604A;}
	.st112{fill:#37A067;}
	.st113{fill:#379965;}
	.st114{fill:#2DB06A;}
	.st115{fill:#32A063;}
	.st116{fill:#329D66;}
	.st117{fill:#4F4F4F;}
	.st118{fill:#34A168;}
	.st119{fill:#319D66;}
	.st120{fill:#33A066;}
	.st121{fill:#339D68;}
	.st122{fill:#299F62;}
	.st123{fill:#2674A8;}
	.st124{fill:#04080A;}
	.st125{fill:#167AB9;}
	.st126{fill:#2B6893;}
	.st127{fill:#051019;}
	.st128{fill:#030F1B;}
	.st129{fill:#9F6343;}
	.st130{fill:#91604B;}
	.st131{fill:#8E5F49;}
	.st132{fill:#93614C;}
	.st133{fill:#1479B9;}
	.st134{fill:#041326;}
	.st135{fill:#3AA06D;}
	.st136{fill:#855C46;}
	.st137{fill:#F2E03C;}
	.st138{fill:#0A0A0D;}
	.st139{fill:#0E7CBC;}
	.st140{fill:#157ABB;}
	.st141{fill:#0B78B4;}
	.st142{fill:#0E7BBC;}
	.st143{fill:#147ABE;}
	.st144{fill:#0A7BBB;}
	.st145{fill:#1F79BC;}
	.st146{fill:#147ABC;}
	.st147{fill:#05080D;}
	.st148{fill:#090706;}
	.st149{fill:#08090C;}
	.st150{fill:#120C08;}
	.st151{fill:#091019;}
	.st152{fill:#32B26A;}
	.st153{fill:#EF3D36;}
	.st154{fill:#FCFDFD;}
	.st155{fill:#C43C37;}
	.st156{fill:#349A69;}
	.st157{fill:#FAFBFB;}
	.st158{fill:#08B3DC;}
	.st159{fill:#ECEDEE;}
	.st160{fill:#418097;}
	.st161{fill:#298AA6;}
	.st162{fill:#080808;}
	.st163{fill:#090909;}
	.st164{fill:#1A77B6;}
	.st165{fill:#2376B2;}
	.st166{fill:#2377B6;}
	.st167{fill:#216996;}
	.st168{fill:#369F66;}
	.st169{fill:#349F64;}
	.st170{fill:#276FA9;}
	.st171{fill:#246B9A;}
	.st172{fill:#070E1C;}
	.st173{fill:#319D65;}
	.st174{fill:#1C78B6;}
	.st175{fill:#107BBC;}
	.st176{fill:#F8E334;}
	.st177{fill:#231302;}
	.st178{fill:#4D3809;}
	.st179{fill:#FDFCFC;}
	.st180{fill:#04B5E1;}
	.st181{fill:#F5F6F8;}
	.st182{fill:#578FA0;}
	.st183{fill:#398096;}
	.st184{fill:#070D11;}
	.st185{fill:#1778B9;}
	.st186{fill:#1C77B9;}
	.st187{fill:#060A18;}
	.st188{fill:#090C15;}
	.st189{fill:#090A0A;}
	.st190{fill:#087BBC;}
	.st191{fill:#070E20;}
	.st192{fill:#070F1D;}
	.st193{fill:#F8E333;}
	.st194{fill:#1F1208;}
	.st195{fill:#12130E;}
	.st196{fill:#2B2615;}
	.st197{fill:#F4E04A;}
	.st198{fill:#1A0F04;}
	.st199{fill:#EBD763;}
	.st200{fill:#EBDA6B;}
	.st201{fill:#4F3605;}
	.st202{fill:#D8CB50;}
	.st203{fill:#513C0D;}
	.st204{fill:#B3B3B3;}
	.st205{fill:#FFFFFF;}
</style>
<g id="wnOQ2S_00000163069669041090312870000001664029246977339318_">
	<g>
		<path d="M406.45,571.9c0.25-1.37-0.36-1.8-0.86-2.27c-13.29-12.51-22.06-27.77-27.07-45.19c-1.2-4.16-3.34-6.59-7.28-8.5
			c-21.75-10.53-41.65-23.91-58.75-41c-26.07-26.05-42.02-57.52-48.65-93.81c-3.4-18.63-4.93-37.36-4.05-56.25
			c2.47-52.79,19.9-99.23,58.95-136.13c23.28-22,51.09-36.07,81.77-44.52c34.55-9.51,69.75-11.74,105.41-8.8
			c19.84,1.64,39.56,3.98,59.06,7.96c31.61,6.44,62.33,15.67,91.19,30.36c42.45,21.6,72.78,53.99,87.56,99.84
			c8.27,25.64,10.06,52,7.85,78.75c-2.81,33.91-10.96,66.35-26.07,96.93c-7.71,15.6-17.05,30.15-28.87,42.98
			c-15.53,16.86-34.62,28.41-55.75,36.8c-12.63,5.02-25.71,8.58-39.01,11.3c-2,0.41-2.85,1.4-3.59,3.2
			c-10.01,24.06-26.51,41.6-51.27,50.78c-3.17,1.18-3.15,1.51-0.54,4.11c9.88,9.82,20.35,19,30.5,28.53
			c16.86,15.83,29.56,34.99,41.59,54.57c1.54,2.5,3.27,3.9,6.22,4.43c12.28,2.17,24.09,5.73,34.74,12.49
			c3.17,2.01,6.23,4.17,8.79,6.95c4.21,4.57,4.38,9.01,0.53,13.79c-0.66,0.82-1.39,1.58-2.06,2.39c-3.18,3.86-3.24,4.68-0.65,8.97
			c4.66,7.72,2.32,14.97-6.01,18.63c-4.61,2.02-4.61,2.02-2.59,6.51c2.95,6.57-0.53,12.35-8.26,13.55
			c-1.72,0.27-3.51,0.07-5.25,0.22c-1.61,0.14-3.86-1.27-4.66,1.01c-0.86,2.45-2.01,5.14-0.18,7.74c1.41,2.01,2.91,3.96,4.32,5.97
			c5.7,8.05,9.63,16.89,10.92,26.69c2.48,18.79-4.87,33.1-20.62,43.19c-8.71,5.58-18.5,8.24-28.63,9.87
			c-24.5,3.96-48.26,1.69-71.1-8.31c-14.63-6.41-26.22-16.48-35.56-29.37c-3.02-4.17-2.69-8.84-3.21-13.41
			c-0.33-2.89-0.3-5.86-0.14-8.77c0.16-2.9-0.94-3.95-3.84-3.91c-8.08,0.12-16.14-0.34-24.19-1.16c-10.83-1.11-21.59-2.66-32.15-5.3
			c-2.22-0.55-3.19-0.25-3.7,2.04c-4.05,18.23-15.54,29.89-32.9,35.57c-33.35,10.91-66.43,9.94-98.48-4.73
			c-15.96-7.3-26.12-20.07-28.42-37.88c-1.81-14,3.67-25.93,12.58-36.36c11.71-13.7,26.88-21.04,44.54-23.65
			c7.08-1.05,14.19-1.58,21.34-1.41c2.55,0.06,3.67-0.31,2.78-3.34c-1.43-4.83-1.92-9.88-1.94-14.92c-0.01-2.18-0.74-3.41-2.68-4.38
			c-4.07-2.04-7.97-4.45-12.05-6.46c-2.41-1.19-2.47-2.4-1.25-4.6c7.64-13.68,15.1-27.46,22.79-41.11c1.33-2.36,1.18-3.74-0.65-5.72
			c-12.08-13.07-24.23-26.14-33.81-41.2c-3.02-4.74-6.16-6.08-11.52-5.86c-15.68,0.62-31.36,0.31-46.8-3.16
			c-0.34-0.08-0.7-0.09-1.04-0.17c-11.14-2.69-13.46-7.39-8.42-17.72c1.62-3.32,1.31-5.7-1.63-7.91c-1.78-1.34-3.25-3.03-4.4-4.97
			c-2.93-4.97-2.25-9.31,2.06-13.14c0.87-0.78,1.75-1.57,2.72-2.22c1.77-1.2,1.8-2.49,0.53-4.1c-1.08-1.38-2.12-2.81-2.98-4.33
			c-3.91-6.9-1.01-13.21,6.9-14c4.28-0.43,5.72-2.16,6.27-6.19c0.88-6.4,4.35-8.79,11.11-8.44c8.56,0.45,16.02,3.98,23.19,8.31
			c2.3,1.39,4.53,2.9,6.85,4.26c2.3,1.34,3.91,0.78,4.83-1.86c1.08-3.08,1.77-6.3,3.62-9.09c3.47-5.22,8.32-6.23,13.55-2.74
			c3.5,2.33,5.96,5.58,8.09,9.11c4.75,7.86,8.12,16.33,10.78,25.06c1.22,4,3.14,6.36,7.39,7.74c16.32,5.33,32.48,11.16,48.71,16.79
			C404.03,571.3,405.15,571.54,406.45,571.9z M605.12,444.03c-0.29,2.07,0.35,3.09,0.68,4.19c2.76,9.33,4.71,18.81,5.16,28.57
			c0.74,15.94-1.69,31.48-5.74,46.83c-0.96,3.64-0.74,3.9,2.94,2.93c4.86-1.28,9.74-2.5,14.55-3.94
			c24.28-7.24,46.04-18.85,63.87-37.18c2.65-2.72,2.57-2.88-1.11-4.09c-15.44-5.09-29.52-12.8-41.13-24.13
			c-28.05-27.37-40.42-60.89-36.09-99.86c4.19-37.66,23.63-65.71,56.73-84.01c16.14-8.93,33.8-13.51,52.02-15.96
			c7.22-0.97,7.25-0.94,3.62-7.43c-16.66-29.82-41.3-51.04-71.48-66.28c-7.43-3.75-7.46-3.71-9.5,4.34
			c-17.65,69.71-82.75,103.3-140.15,93.6c-41.9-7.08-71.07-30.91-87.96-69.87c-6.92-15.95-9.86-32.84-11.92-49.94
			c-0.56-4.64-0.48-4.69-4.89-3.27c-35,11.29-64.47,30.61-87.05,59.96c-1.41,1.83-1.01,2.54,1,3.15c5.81,1.76,11.66,3.44,17.39,5.46
			c19.87,7.03,36.98,18.27,49.92,34.98c22.36,28.89,29.43,61.74,21.19,97.05c-10.97,47.03-39.65,77.41-87.65,88.08
			c-4.08,0.91-4.19,0.96-1.47,4.36c17.33,21.62,38.66,38.26,63.32,50.75c0.5,0.25,1.19,0.6,1.6,0.43c0.82-0.34,0.38-1.15,0.32-1.82
			c-2.26-22.86,0.29-45.05,9.37-66.3c1.63-3.82,3.48-7.55,5.24-11.35c-1.56-0.68-2.6,0.28-3.7,0.84
			c-7.51,3.85-14.39,8.73-21.44,13.33c-1.84,1.2-4.14,3.91-6.03,1.8c-1.58-1.76,0.71-4.27,2.24-5.92
			c6.21-6.71,12.82-12.99,20.54-18.01c19.18-12.46,40.87-17.11,63.06-19.56c23.82-2.63,47.65-1.81,71.39,1.95
			c23.18,3.67,45.78,9.42,67.51,18.31c8.56,3.5,16.96,7.42,23.71,14.04c7.07,6.93,12.51,15.13,17.86,23.38
			c0.82,1.26,1.36,2.7,1.91,4.11c0.24,0.63,0.29,1.47-0.33,1.96c-0.72,0.57-1.33-0.03-1.83-0.47c-2.28-2-4.53-4.05-6.79-6.08
			C612.59,449.93,609.31,446.81,605.12,444.03z M469.61,407.36c-9.11,0.25-18.24,0.09-27.34,1.01c-10.25,1.04-20.42,2.45-30.47,4.72
			c-2.35,0.53-3.85,1.8-5.19,3.76c-10.36,15.13-15.44,32.04-17.75,50.07c-2.16,16.89-1.97,33.57,2.24,50.15
			c7.91,31.15,26.46,52.96,56.73,64.25c27.33,10.2,55.48,10.95,83.62,4.79c21.74-4.76,38.66-17.1,49.81-36.83
			c8.05-14.25,12.63-29.61,15.32-45.64c3.89-23.21,1.83-45.65-8.38-67.13c-1.83-3.86-4.5-6.32-8.38-7.93
			c-10.49-4.35-21.18-7.89-32.22-10.69C521.97,411.4,496.14,406.91,469.61,407.36z M485.11,787.19c8.17-0.55,16.39-0.75,24.51-1.73
			c11.37-1.37,22.67-3.27,32.92-9c15.75-8.81,27.54-21.17,34.54-37.91c1.47-3.51,0.9-4.22-2.86-3.47
			c-6.45,1.28-12.96,1.92-19.5,2.23c-18.08,0.86-35.99-0.46-53.71-4.32c-2.32-0.51-3.28-1.52-3.02-3.77
			c1.06-9.19,1.09-18.45,1.67-27.68c0.66-10.51,1.24-21.03,1.92-31.53c0.13-1.97-0.32-3.07-2.54-3.26
			c-4.54-0.38-9.07-0.98-13.6-1.46c-9.77-1.03-19.56-1.89-29.3-3.16c-2.68-0.35-3.69-0.04-4.27,2.75
			c-3.85,18.77-7.87,37.51-11.86,56.25c-1.65,7.76-1.7,8.01-9.44,7.32c-14.79-1.32-29.51-3.18-43.79-7.55
			c-7.05-2.16-13.96-4.68-20.84-7.28c-0.77-0.29-1.61-0.78-2.34-0.33c-0.95,0.58-0.25,1.48-0.07,2.22
			c1.77,7.44,4.34,14.55,8.41,21.07c9.19,14.72,22.28,25.24,37.32,33.22C432.91,782.35,458.4,787.53,485.11,787.19z M264.56,535.58
			c0.93,2.05,2.46,2.67,3.86,3.4c4.98,2.58,10,5.09,14.95,7.74c1.92,1.02,5.23,1.83,4.95,3.86c-0.34,2.45-3.76,2.05-5.96,2.53
			c-6.28,1.37-12.77,1.59-18.97,3.38c-1.14,0.33-2.53,0.59-2.67,1.89c-0.13,1.24,1.08,2,2.06,2.62c0.78,0.5,1.65,0.88,2.51,1.24
			c5.07,2.1,10.17,4.15,15.23,6.3c1.64,0.7,4.27,0.77,4.38,2.88c0.13,2.43-2.63,2.61-4.34,3.39c-4.35,2-8.85,3.7-13.14,5.8
			c-2.43,1.19-2.29,2.65,0.09,3.99c1.67,0.94,3.57,1.13,5.43,1.27c17.04,1.29,34.1,2.23,51.19,0.97c2.17-0.16,3.43,0.44,4.5,2.36
			c9.41,16.92,22.43,31.04,35.31,45.26c1.47,1.62,2.4,1.35,3.43-0.39c6.78-11.39,16.07-20.64,25.5-29.76
			c6.4-6.19,13.19-11.92,20.18-17.43c2.8-2.21,2.65-2.73-0.67-3.97c-1.64-0.62-3.28-1.23-4.93-1.82
			c-19.94-7.06-39.88-14.12-59.82-21.17c-3.1-1.1-6.11-1.95-7.11-5.89c-2.55-9.99-6.51-19.5-10.73-28.89
			c-0.88-1.95-1.07-5.51-4.05-4.81c-2.61,0.62-1.87,3.86-1.93,6.12c-0.21,8.33,0.62,16.59,1.62,24.84c0.15,1.26,0.36,2.78-1.13,3.37
			c-1.29,0.52-2.14-0.67-2.94-1.46c-2.51-2.48-4.5-5.38-6.5-8.27c-8.31-11.96-20.23-18.8-33.5-23.76c-0.65-0.24-1.4-0.69-1.92,0.02
			c-0.7,0.96,0.31,1.48,0.81,2.02c2.4,2.57,4.86,5.06,7.27,7.62c1.6,1.7,3.32,3.32,4.38,5.45c0.46,0.92,1.23,1.91,0.38,2.91
			c-0.68,0.8-1.76,0.57-2.66,0.39c-2.4-0.5-4.76-1.21-7.17-1.67C276.68,536.81,270.9,535.65,264.56,535.58z M586.88,753.14
			c1.49-0.94,2.25-2.24,3-3.54c2.23-3.85,4.42-7.69,5.8-11.97c0.9-2.78,2.53-3.15,4.66-1.11c1.09,1.03,1.93,2.34,2.79,3.59
			c3.1,4.56,6.39,8.95,10.44,12.73c3.36,3.14,7.12,5.69,11.27,7.67c0.72,0.34,1.59,0.82,2.26,0.07c0.55-0.62-0.04-1.28-0.35-1.9
			c-1.2-2.41-2.43-4.8-3.51-7.26c-0.62-1.42-2.35-3.1-1.05-4.41c1.4-1.4,3.3,0.13,4.81,0.84c5.83,2.7,11.6,5.55,17.42,8.28
			c1.09,0.51,2.57,1.67,3.48,0.4c0.88-1.23-0.66-2.36-1.45-3.24c-3.81-4.28-7.8-8.41-11.62-12.68c-1.48-1.66-4.79-3.18-3.63-5.32
			c1.09-2.02,4.28-0.26,6.49,0.02c6.03,0.76,12.01,1.86,18.04,2.57c2.87,0.34,3.6-0.94,2.54-3.62c-0.89-2.25-2.57-3.93-4.37-5.41
			c-4.14-3.43-8.41-6.71-12.59-10.1c-0.78-0.63-2.02-1.27-1.63-2.46c0.36-1.1,1.65-1.16,2.7-1.28c5.34-0.61,10.69-1.21,16.03-1.8
			c1.51-0.17,3.35-0.11,3.9-1.78c0.64-1.92-1.31-2.74-2.39-3.87c-0.4-0.41-0.92-0.73-1.43-1.01c-11.38-6.35-23.2-11.67-36.01-14.34
			c-3.96-0.82-6.8-2.46-9-5.86c-5.98-9.23-12.82-17.87-19.39-26.68c-0.63-0.85-1.03-2.18-2.77-1.81c-0.12,1.92,1.32,3.18,1.95,4.74
			c8,19.81,13.63,40.28,17.22,61.34c0.33,1.94-0.07,2.77-1.92,3.31c-3.81,1.11-7.52,2.61-11.38,3.51c-2.84,0.66-4.11,2.22-4.7,4.89
			c-1.13,5.16-2.75,10.15-5.35,14.78C586.8,751.1,586.24,751.83,586.88,753.14z M504.39,614.69c0.06,0,0.12,0.01,0.18,0.01
			c0.15-2.92,0.13-5.86,0.49-8.76c0.33-2.64-0.77-3.14-3.13-3.1c-11.26,0.22-22.46-0.44-33.54-2.53c-1.93-0.36-3.02,0.08-3.45,2.26
			c-2.83,14.33-5.67,28.67-8.75,42.95c-0.68,3.15,0.47,3.97,3.16,4.19c4.55,0.37,9.09,0.76,13.63,1.26
			c8.83,0.99,17.66,1.99,26.47,3.14c2.58,0.34,3.03-0.57,3.13-2.96C503.06,639,503.76,626.85,504.39,614.69z M540.06,730.72
			c8.65,0.2,19.82-1.04,30.96-2.4c6.59-0.81,13.17-1.99,19.55-4.01c3.09-0.98,2.93-3.37,2.23-5.73c-0.76-2.56-2.76-1.17-4.1-0.79
			c-21.84,6.26-43.91,5.79-66.09,2.37c-2.52-0.39-3.42-1.53-3.29-4.27c1.13-23.61,2.11-47.24,3.1-70.86
			c0.55-13.1,1.04-26.2,1.55-39.29c0.07-1.7,1.31-3.87-1.95-4.13c-4.67-0.37-6.18,0.42-6.33,3.73c-0.51,11.34-0.92,22.68-1.51,34.02
			c-0.8,15.42-1.74,30.84-2.62,46.25c-0.74,12.85-1.4,25.7-2.29,38.53c-0.23,3.3,1.35,4.46,4.09,4.85
			C521.34,730.17,529.36,731.06,540.06,730.72z M427.39,716.56c1.74,0.39,2.67-0.61,3.15-3.13c5.19-27.34,10.52-54.66,15.82-81.99
			c2.03-10.45,4.04-20.9,6.11-31.34c0.92-4.64-3.09-3.43-5.17-4.33c-2.51-1.08-2.51,1.08-2.84,2.66
			c-1.94,9.14-3.88,18.29-5.83,27.43c-5.44,25.49-10.93,50.97-16.28,76.47c-0.55,2.63-1.68,3.44-4.25,3.38
			c-9.75-0.26-19.33-1.72-28.79-3.92c-11.41-2.66-22.47-6.43-33.03-11.58c-1.41-0.69-2.92-1.42-3.9,0.54
			c-0.94,1.89,0.43,2.77,1.82,3.54c2.55,1.42,5.06,2.92,7.67,4.23C382.3,708.7,403.95,714.49,427.39,716.56z"/>
		<path d="M534.69,523.58c-4.37-1.81-4.36,0.81-4.85,3.34c-3.67,19.25-18.71,32.44-37.12,32.67c-21,0.27-37.34-12.1-41.59-31.55
			c-0.73-3.32-1.23-6.7-0.96-10.1c0.2-2.51-0.22-4.15-4.16-3.56c3.15-3.43,5.7-6.2,8.71-9.48c-0.72,6.48-0.72,6.47,5.45,7.29
			c21.58,2.88,43.2,5.1,65.01,4.89c2.15-0.02,4.02,0.05,3.77-2.93c-0.06-0.7,0.3-1.4,1.18-1.46c0.74-0.04,1.08,0.58,1.13,1.12
			C531.55,517.1,533.19,519.95,534.69,523.58z"/>
		<path d="M472.12,457.89c0.34,8.48-1.87,16.43-5.27,24.08c-1.04,2.35-2.65,4.41-4.64,6.1c-3.65,3.09-7.64,2.83-10.84-0.72
			c-3.85-4.27-5.26-9.58-6.14-15.04c-1.67-10.44,0.08-20.47,4.11-30.15c0.9-2.16,2.14-4.15,3.71-5.92
			c4.82-5.41,10.65-4.9,14.31,1.41c2.74,4.72,4.03,9.93,4.51,15.34C472.03,454.61,472.04,456.25,472.12,457.89z"/>
		<path d="M518.12,471c0.42-7.82,1.68-15.52,5.04-22.75c1.54-3.33,3.45-6.39,6.59-8.48c3.09-2.06,5.85-1.92,8.68,0.46
			c1.93,1.62,3.25,3.68,4.11,6.02c5.62,15.28,3.46,29.87-4.05,43.93c-0.65,1.21-1.64,2.3-2.65,3.25c-4.24,3.99-8.9,3.55-12.2-1.26
			C519.29,485.82,518.47,478.5,518.12,471z"/>
	</g>
</g>
</svg>
