<?xml version="1.0" encoding="utf-8"?>
<!-- Generator: Adobe Illustrator 27.0.0, SVG Export Plug-In . SVG Version: 6.00 Build 0)  -->
<svg version="1.1" id="Layer_1" xmlns="http://www.w3.org/2000/svg" xmlns:xlink="http://www.w3.org/1999/xlink" x="0px" y="0px"
	 viewBox="0 0 1000 1000" style="enable-background:new 0 0 1000 1000;" xml:space="preserve">
<style type="text/css">
	.st0{fill:#010100;}
	.st1{fill:#F13D18;}
	.st2{fill:#45B94C;}
	.st3{fill:#FCD629;}
	.st4{fill:#00A9DE;}
	.st5{fill:#0C0101;}
	.st6{fill:#F53831;}
	.st7{fill:#FED8BC;}
	.st8{fill:#FEFEFE;}
	.st9{fill:#FDBE7F;}
	.st10{fill:#0079BD;}
	.st11{fill:#9B5F3F;}
	.st12{fill:#0078BD;}
	.st13{fill:#FEF12F;}
	.st14{fill:#FDF02F;}
	.st15{fill:#FEFDFD;}
	.st16{fill:#FBFBFB;}
	.st17{fill:#0078BC;}
	.st18{fill:#F7F7F7;}
	.st19{fill:#985D3E;}
	.st20{fill:#08C2E1;}
	.st21{fill:#EECAB1;}
	.st22{fill:#E6E5E5;}
	.st23{fill:#221E21;}
	.st24{fill:#B69885;}
	.st25{fill:#CDAD97;}
	.st26{fill:#1D1C20;}
	.st27{fill:#235D91;}
	.st28{fill:#FAD5B9;}
	.st29{fill:#955276;}
	.st30{fill:#5C4C75;}
	.st31{fill:#0C0102;}
	.st32{fill:#0E0303;}
	.st33{fill:#100606;}
	.st34{fill:#100505;}
	.st35{fill:#120708;}
	.st36{fill:#190E03;}
	.st37{fill:#1E1303;}
	.st38{fill:#14181B;}
	.st39{fill:#FDFDFD;}
	.st40{fill:#08CAE9;}
	.st41{fill:#15171B;}
	.st42{fill:#EDECEC;}
	.st43{fill:#282A2E;}
	.st44{fill:#19191C;}
	.st45{fill:#2E3D41;}
	.st46{fill:#090C0A;}
	.st47{fill:#01B061;}
	.st48{fill:#FCFCFC;}
	.st49{fill:#F89134;}
	.st50{fill:#F04938;}
	.st51{fill:#06070C;}
	.st52{fill:#05070A;}
	.st53{fill:#060606;}
	.st54{fill:#060607;}
	.st55{fill:#05070B;}
	.st56{fill:#050807;}
	.st57{fill:#060708;}
	.st58{fill:#04080B;}
	.st59{fill:#070606;}
	.st60{fill:#070707;}
	.st61{fill:#0A0606;}
	.st62{fill:#FED9BF;}
	.st63{fill:#9F6443;}
	.st64{fill:#FEDAC0;}
	.st65{fill:#070605;}
	.st66{fill:#2675AF;}
	.st67{fill:#2A71A6;}
	.st68{fill:#2077B5;}
	.st69{fill:#206B9E;}
	.st70{fill:#2A71A7;}
	.st71{fill:#050D1A;}
	.st72{fill:#081020;}
	.st73{fill:#030C1B;}
	.st74{fill:#031425;}
	.st75{fill:#00B45F;}
	.st76{fill:#9F6344;}
	.st77{fill:#01B45F;}
	.st78{fill:#03080D;}
	.st79{fill:#339C62;}
	.st80{fill:#906049;}
	.st81{fill:#31A064;}
	.st82{fill:#2F9E67;}
	.st83{fill:#359E64;}
	.st84{fill:#329F69;}
	.st85{fill:#2FA165;}
	.st86{fill:#EDFBEF;}
	.st87{fill:#2FA564;}
	.st88{fill:#359F65;}
	.st89{fill:#34A26A;}
	.st90{fill:#36A36B;}
	.st91{fill:#01220B;}
	.st92{fill:#389F67;}
	.st93{fill:#339D64;}
	.st94{fill:#30A367;}
	.st95{fill:#35A66D;}
	.st96{fill:#34A368;}
	.st97{fill:#349D64;}
	.st98{fill:#369C66;}
	.st99{fill:#359866;}
	.st100{fill:#1C9154;}
	.st101{fill:#31A161;}
	.st102{fill:#29A567;}
	.st103{fill:#AAD0B4;}
	.st104{fill:#339E68;}
	.st105{fill:#37A266;}
	.st106{fill:#389864;}
	.st107{fill:#38AA71;}
	.st108{fill:#3BA16C;}
	.st109{fill:#3BA66C;}
	.st110{fill:#05060A;}
	.st111{fill:#06070A;}
	.st112{fill:#0E0E0E;}
	.st113{fill:#2F9F65;}
	.st114{fill:#30A068;}
	.st115{fill:#33A067;}
	.st116{fill:#30A16B;}
	.st117{fill:#31A066;}
	.st118{fill:#349C6B;}
	.st119{fill:#06090E;}
	.st120{fill:#90604A;}
	.st121{fill:#37A067;}
	.st122{fill:#379965;}
	.st123{fill:#2DB06A;}
	.st124{fill:#32A063;}
	.st125{fill:#329D66;}
	.st126{fill:#4F4F4F;}
	.st127{fill:#34A168;}
	.st128{fill:#319D66;}
	.st129{fill:#33A066;}
	.st130{fill:#339D68;}
	.st131{fill:#299F62;}
	.st132{fill:#2674A8;}
	.st133{fill:#04080A;}
	.st134{fill:#167AB9;}
	.st135{fill:#2B6893;}
	.st136{fill:#051019;}
	.st137{fill:#030F1B;}
	.st138{fill:#9F6343;}
	.st139{fill:#91604B;}
	.st140{fill:#8E5F49;}
	.st141{fill:#93614C;}
	.st142{fill:#1479B9;}
	.st143{fill:#041326;}
	.st144{fill:#3AA06D;}
	.st145{fill:#855C46;}
	.st146{fill:#F2E03C;}
	.st147{fill:#0A0A0D;}
	.st148{fill:#0E7CBC;}
	.st149{fill:#157ABB;}
	.st150{fill:#0B78B4;}
	.st151{fill:#0E7BBC;}
	.st152{fill:#147ABE;}
	.st153{fill:#0A7BBB;}
	.st154{fill:#1F79BC;}
	.st155{fill:#147ABC;}
	.st156{fill:#05080D;}
	.st157{fill:#090706;}
	.st158{fill:#08090C;}
	.st159{fill:#120C08;}
	.st160{fill:#091019;}
	.st161{fill:#32B26A;}
	.st162{fill:#EF3D36;}
	.st163{fill:#FCFDFD;}
	.st164{fill:#C43C37;}
	.st165{fill:#349A69;}
	.st166{fill:#FAFBFB;}
	.st167{fill:#08B3DC;}
	.st168{fill:#ECEDEE;}
	.st169{fill:#418097;}
	.st170{fill:#298AA6;}
	.st171{fill:#080808;}
	.st172{fill:#090909;}
	.st173{fill:#1A77B6;}
	.st174{fill:#2376B2;}
	.st175{fill:#2377B6;}
	.st176{fill:#216996;}
	.st177{fill:#369F66;}
	.st178{fill:#349F64;}
	.st179{fill:#276FA9;}
	.st180{fill:#246B9A;}
	.st181{fill:#070E1C;}
	.st182{fill:#319D65;}
	.st183{fill:#1C78B6;}
	.st184{fill:#107BBC;}
	.st185{fill:#F8E334;}
	.st186{fill:#231302;}
	.st187{fill:#4D3809;}
	.st188{fill:#FDFCFC;}
	.st189{fill:#04B5E1;}
	.st190{fill:#F5F6F8;}
	.st191{fill:#578FA0;}
	.st192{fill:#398096;}
	.st193{fill:#070D11;}
	.st194{fill:#1778B9;}
	.st195{fill:#1C77B9;}
	.st196{fill:#060A18;}
	.st197{fill:#090C15;}
	.st198{fill:#090A0A;}
	.st199{fill:#087BBC;}
	.st200{fill:#070E20;}
	.st201{fill:#070F1D;}
	.st202{fill:#F8E333;}
	.st203{fill:#1F1208;}
	.st204{fill:#12130E;}
	.st205{fill:#2B2615;}
	.st206{fill:#F4E04A;}
	.st207{fill:#1A0F04;}
	.st208{fill:#EBD763;}
	.st209{fill:#EBDA6B;}
	.st210{fill:#4F3605;}
	.st211{fill:#D8CB50;}
	.st212{fill:#513C0D;}
	.st213{fill:#F63E43;}
	.st214{fill:#F73B37;}
</style>
<g id="BNP3Pq.tif">
	<g>
		<path class="st214" d="M535.65,825.44c-31.73,0-63.45,0-95.18,0c-2.61-1.35-5.47-0.95-8.24-1.09
			c-22.87-1.12-45.51-3.59-67.26-11.38c-22.48-8.05-39.86-21.7-49.74-44.07c-5.21-11.79-8.7-24.03-11.51-36.55
			c-1.78-7.92,0.69-17.8-4.62-23.48c-5.19-5.55-14.29-7.36-21.53-11.1c-57.25-29.64-93.14-74.63-100.49-140.09
			c-1.24-11.06-2.62-22.11-3.94-33.16c0-16.8,0-33.59,0-50.39c0.41-1.8,1.04-3.57,1.19-5.39c5.27-63.33,27.86-119.8,67.22-169.6
			c42.25-53.47,95.39-91.08,161.05-110.5c44.65-13.2,90.19-16.63,136.35-12.35c45.58,4.23,88.77,16.33,128.02,40.68
			c32.54,20.19,59.32,46.61,82.34,76.93c59.11,77.88,89.39,163.86,73.28,262.79c-5.42,33.31-17.11,63.75-39.2,89.75
			c-21.74,25.58-48.93,43.67-79.28,57.18c-6.28,2.8-8.76,6.12-8.63,12.9c0.14,7.18-0.73,14.44-1.73,21.58
			c-4.86,34.65-23.09,59-56.39,70.84c-19.16,6.81-39.18,10.24-59.39,12.34C563.86,822.75,549.75,824.06,535.65,825.44z
			 M655.34,378.92c-0.59-88-70.53-158.4-157.12-157.81c-88.98,0.6-154.99,71.41-156.65,151.64
			c-1.94,93.82,71.09,161.77,156.86,162.09C584.2,535.17,655.9,463.53,655.34,378.92z M501.03,799.04
			c22.63,0.26,45.25-0.27,67.82-1.84c24.94-1.73,49.56-5.17,72.79-15.3c15.24-6.65,25.39-17.51,30.11-33.64
			c5.37-18.33,6.4-37.09,6.84-56.01c0.47-19.85-7.08-35.22-23.8-46.09c-20.62-13.39-42.77-23.74-65.84-31.9
			c-27.71-9.8-56.82-9.66-85.72-9.66c-46.17-0.01-91.76,3.66-134.66,23.05c-18.08,8.17-36.08,16.39-50.49,30.59
			c-5.31,5.22-7.85,11.2-6.85,18.88c1.03,7.84,1.16,15.8,1.86,23.69c1.72,19.41,5.8,38.19,15.12,55.55
			c4.85,9.04,11.46,16.25,20.61,21.23c13.46,7.33,27.88,11.63,42.82,14.41C427.82,798.74,464.41,799.23,501.03,799.04z
			 M193.67,492.3c0.21,19.94,0.33,35.13,5.76,49.6c5.18,13.78,12.79,15.59,23.47,5.54c10.39-9.77,16.86-22.24,22.83-34.88
			c18.35-38.86,29.15-79.96,34.92-122.4c2.23-16.41,3.3-32.96,0.32-49.45c-3.42-18.89-13.04-22.79-28.11-11.31
			c-10,7.62-17.18,17.69-23.38,28.44C204.66,400.93,195.29,448.01,193.67,492.3z M810.43,501.42
			c-1.64-52.1-16.55-100.31-43.07-145.02c-5.1-8.6-11.18-16.69-19.27-22.9c-8.96-6.87-16.05-5.04-20.34,5.43
			c-3.12,7.63-4.24,15.74-4.53,23.93c-1.51,42.48,7.02,83.41,19.41,123.69c6.86,22.32,14.97,44.15,29.01,63.18
			c4.43,6.01,9.33,12.94,17.84,11.46c8.74-1.52,12.17-9.46,14.89-17.02C809.34,530.39,810.51,516.01,810.43,501.42z"/>
		<path d="M411.28,695.9c-0.16-17.98-0.13-33.84,3.75-49.36c2.69-10.77,6.9-15.49,13.43-15.64c6.89-0.16,11.64,4.42,13.87,15.82
			c5.45,27.94,5.6,56.06,0.2,84.02c-2.17,11.24-6.98,16.17-13.59,16.31c-7.04,0.15-11.24-4.69-14.13-16.48
			C411.84,718.49,411.8,706.11,411.28,695.9z"/>
		<path d="M585.85,689.5c-0.63,14.07-0.52,28.09-3.96,41.78c-2.74,10.9-7.22,15.89-14.04,15.77c-6.43-0.11-11.44-5.05-13.4-15.62
			c-5.23-28.2-5.46-56.55-0.06-84.76c2.07-10.82,7.33-15.91,14.04-15.78c6.7,0.13,10.78,5.12,13.55,16.31
			C585.44,661.16,584.84,675.45,585.85,689.5z"/>
	</g>
</g>
</svg>
